HIERARCHY
ROOT Hips
{
	OFFSET -3.958830 18.904000 13.208200
	CHANNELS 6 Xposition Yposition Zposition Zrotation Yrotation Xrotation 
	JOINT LHipJoint
	{
		OFFSET 0.000000 0.000000 0.000000
		CHANNELS 3 Zrotation Yrotation Xrotation
		JOINT LeftUpLeg
		{
			OFFSET 1.800000 -1.400000 0.085000
			CHANNELS 3 Zrotation Yrotation Xrotation
			JOINT LeftLeg
			{
				OFFSET 2.215000 -6.000000 0.000000
				CHANNELS 3 Zrotation Yrotation Xrotation
				JOINT LeftFoot
				{
					OFFSET 2.500000 -6.900000 0.000000
					CHANNELS 3 Zrotation Yrotation Xrotation
					JOINT LeftToeBase
					{
						OFFSET 0.200000 -0.500000 1.950000
						CHANNELS 3 Zrotation Yrotation Xrotation
						End Site
						{
							OFFSET 0.000000 0.000000 0.000000
						}
					}
				}
			}
		}
	}
	JOINT RHipJoint
	{
		OFFSET 0.000000 0.000000 0.000000
		CHANNELS 3 Zrotation Yrotation Xrotation
		JOINT RightUpLeg
		{
			OFFSET -1.800000 -1.400000 0.085000
			CHANNELS 3 Zrotation Yrotation Xrotation
			JOINT RightLeg
			{
				OFFSET -2.215000 -6.000000 0.000000
				CHANNELS 3 Zrotation Yrotation Xrotation
				JOINT RightFoot
				{
					OFFSET -2.500000 -6.900000 0.000000
					CHANNELS 3 Zrotation Yrotation Xrotation
					JOINT RightToeBase
					{
						OFFSET -0.200000 -0.500000 1.950000
						CHANNELS 3 Zrotation Yrotation Xrotation
						End Site
						{
							OFFSET 0.000000 0.000000 0.000000
						}
					}
				}
			}
		}
	}
	JOINT LowerBack
	{
		OFFSET 0.000000 0.000000 0.000000
		CHANNELS 3 Zrotation Yrotation Xrotation
		JOINT Spine
		{
			OFFSET -0.087000 1.940000 -0.288900
			CHANNELS 3 Zrotation Yrotation Xrotation
			JOINT Spine1
			{
				OFFSET 0.000000 1.950000 0.060000
				CHANNELS 3 Zrotation Yrotation Xrotation
				JOINT Neck
				{
					OFFSET 0.000000 0.000000 0.000000
					CHANNELS 3 Zrotation Yrotation Xrotation
					JOINT Neck1
					{
						OFFSET 0.000000 1.600000 0.340000
						CHANNELS 3 Zrotation Yrotation Xrotation
						JOINT Head
						{
							OFFSET 0.000000 1.667000 -0.240000
							CHANNELS 3 Zrotation Yrotation Xrotation
							End Site
							{
								OFFSET 0.000000 0.000000 0.000000
							}
						}
					}
				}
				JOINT LeftShoulder
				{
					OFFSET 0.000000 0.000000 0.000000
					CHANNELS 3 Zrotation Yrotation Xrotation
					JOINT LeftArm
					{
						OFFSET 2.700000 1.550000 -0.730000
						CHANNELS 3 Zrotation Yrotation Xrotation
						JOINT LeftForeArm
						{
							OFFSET 5.450000 0.000000 0.000000
							CHANNELS 3 Zrotation Yrotation Xrotation
							JOINT LeftHand
							{
								OFFSET 3.450000 0.000000 0.000000
								CHANNELS 3 Zrotation Yrotation Xrotation
								JOINT LeftHandIndex1
								{
									OFFSET 0.750000 0.000000 0.000000
									CHANNELS 3 Zrotation Yrotation Xrotation
									End Site
									{
										OFFSET 0.000000 0.000000 0.000000
									}
								}
							}
						}
					}
				}
				JOINT RightShoulder
				{
					OFFSET 0.000000 0.000000 0.000000
					CHANNELS 3 Zrotation Yrotation Xrotation
					JOINT RightArm
					{
						OFFSET -2.700000 1.550000 -0.730000
						CHANNELS 3 Zrotation Yrotation Xrotation
						JOINT RightForeArm
						{
							OFFSET -5.450000 0.000000 0.000000
							CHANNELS 3 Zrotation Yrotation Xrotation
							JOINT RightHand
							{
								OFFSET -3.450000 0.000000 0.000000
								CHANNELS 3 Zrotation Yrotation Xrotation
								JOINT RightHandIndex1
								{
									OFFSET -0.750000 0.000000 0.000000
									CHANNELS 3 Zrotation Yrotation Xrotation
									End Site
									{
										OFFSET 0.000000 0.000000 0.000000
									}
								}
							}
						}
					}
				}
			}
		}
	}
}
MOTION
Frames: 7
Frame Time: 0.016667
-1.205800 16.926480 -2.908570 1.004984 -1.327388 5.414382 -15.109549 11.231513 4.685830 21.369468 -5.177643 -34.293476 -19.911669 12.164452 26.969311 -0.511228 7.902097 1.542393 0.331380 0.071060 0.315390 18.680536 -8.818382 3.870659 -20.702721 5.770461 -41.211019 14.518603 -15.298752 41.973979 -0.985669 -7.361030 1.540688 0.114840 0.211700 0.279890 -4.286810 -1.989315 -8.967377 26.451604 -9.060687 34.220454 -6.041073 -0.269317 5.589662 1.293970 -8.988725 -12.336105 -22.996142 4.534977 39.594050 -8.125200 0.569220 -24.134490 -12.595336 -24.026466 2.312151 -28.363974 -30.543767 2.554737 -132.100820 -55.843027 85.373198 -3.843151 3.039067 0.873730 0.000650 0.180380 -0.001760 9.915438 28.814111 10.142857 45.363816 13.765050 -11.440584 80.684871 51.938305 28.824210 2.098319 -1.449747 -0.306670 0.505870 0.302170 -0.276350 
-1.212620 16.914210 -2.919730 1.299104 -1.165845 4.931137 -15.121784 11.272307 4.692566 21.368543 -5.317263 -34.034706 -20.165538 12.260254 27.264092 -0.460255 7.930847 1.527037 0.358400 0.117320 0.316560 18.662482 -8.788659 3.871787 -21.179982 5.590625 -41.010537 14.850122 -15.593672 42.234115 -1.028867 -7.452078 1.512762 0.118740 0.184640 0.277220 -4.240285 -2.118148 -8.984383 26.872743 -9.394017 35.242056 -5.863982 -0.187157 5.350592 1.426583 -9.215972 -12.848091 -24.199542 4.884605 40.497020 -7.490320 0.061420 -24.687600 -12.940586 -24.943166 2.416676 -28.193963 -30.560982 1.882588 -129.726296 -56.003928 82.242528 -3.806174 3.043757 0.877290 -0.032120 0.212420 0.012580 10.129707 29.913248 10.622942 44.852870 12.949732 -12.311202 80.666851 51.939747 28.439620 2.107583 -1.448376 -0.273470 0.502220 0.278150 -0.255150 
-1.223620 16.876890 -2.935980 1.979780 -0.886018 4.488379 -15.144550 11.207214 4.729944 21.476987 -5.687360 -34.087841 -20.957604 12.645205 28.050014 -0.403007 8.110168 1.460381 0.406060 0.190950 0.330680 18.662176 -8.658848 3.932686 -22.589845 5.161128 -41.322861 15.897885 -16.541723 42.963420 -1.121674 -7.770323 1.410992 0.151160 0.152980 0.260270 -4.206368 -2.250843 -9.036191 27.811591 -9.939507 36.328822 -5.580322 -0.161959 5.120223 1.499602 -9.703221 -13.166515 -26.042503 5.370033 41.070315 -7.145520 -0.638910 -25.518700 -13.702374 -25.671952 2.238422 -28.338330 -30.968964 1.219522 -125.179412 -56.442246 77.033944 -3.772858 3.028567 0.886700 -0.068130 0.246500 0.034200 10.849693 30.898225 10.888262 43.927312 12.322606 -13.118480 79.908868 51.154424 27.173956 2.089082 -1.452022 -0.252050 0.521800 0.246000 -0.239830 
-1.236210 16.824190 -2.950970 2.365394 -0.728443 4.657412 -15.170856 10.968488 4.846080 22.495404 -5.857901 -34.518717 -22.747353 13.337441 28.355865 -0.315598 8.450690 1.343346 0.457790 0.252400 0.370830 18.697395 -8.431760 4.034510 -23.865464 4.875366 -42.493720 16.897555 -17.707378 44.059673 -1.231799 -8.158035 1.287240 0.177620 0.131430 0.261060 -4.224607 -2.263622 -9.130027 29.530882 -10.493430 36.310155 -5.459894 -0.123242 5.221710 1.583781 -10.075935 -13.259886 -27.336699 5.760886 41.130317 -7.212420 -1.066020 -26.069240 -13.678755 -25.876441 2.168586 -29.514440 -31.600107 0.882365 -120.149847 -57.630837 72.422182 -3.775837 2.989507 0.888760 -0.087940 0.276420 0.051150 10.679103 31.281185 10.827177 43.655308 12.305671 -13.481576 78.694649 50.337408 25.823183 2.073310 -1.461472 -0.228330 0.535950 0.212680 -0.230640 
-1.252250 16.771800 -2.955500 2.764766 -0.325491 4.995058 -15.192089 10.729457 4.942781 23.353123 -6.069578 -35.210849 -23.987938 14.007757 29.086632 -0.267500 8.780358 1.222963 0.486420 0.284370 0.393220 18.739277 -8.222350 4.139126 -25.136073 4.400431 -43.693759 17.824753 -18.963376 45.137396 -1.327542 -8.568038 1.149045 0.206150 0.111810 0.255840 -4.257861 -2.250719 -9.217148 31.136527 -11.045124 35.637755 -5.462189 -0.221885 5.234230 1.628829 -10.299141 -13.206536 -27.919225 5.811262 40.776770 -7.571580 -1.276110 -26.127450 -13.660865 -25.908819 2.042723 -30.537767 -32.152230 0.916699 -116.763761 -57.680139 68.679862 -3.773511 2.992732 0.894630 -0.096800 0.285490 0.054100 10.554905 31.320085 10.714801 44.030829 12.202855 -13.707084 77.098120 49.313586 24.229466 2.048838 -1.476289 -0.229320 0.539660 0.199310 -0.238740 
-1.263230 16.719670 -2.944630 3.295055 0.266391 5.274312 -15.195130 10.539914 4.981726 23.736321 -6.299168 -35.726751 -24.684129 14.615765 30.035652 -0.162221 9.011793 1.155525 0.497850 0.318890 0.384160 18.784602 -8.084527 4.234813 -26.473766 3.605319 -44.627306 18.562497 -20.283663 46.182694 -1.411587 -8.998229 1.030638 0.213460 0.104800 0.258720 -4.316229 -2.197605 -9.286779 32.649788 -11.377459 34.180967 -5.734415 -0.396421 5.253140 1.740146 -10.093915 -13.177539 -27.408841 5.546255 40.792110 -8.250410 -0.977640 -24.631100 -14.326725 -26.242092 1.926433 -30.574745 -32.735008 1.348843 -115.922911 -57.422481 67.894745 -3.768376 3.042521 0.844980 -0.078100 0.281220 0.075010 10.958183 31.246021 10.815689 44.812484 11.609510 -13.823295 76.424273 49.250395 23.773754 2.052316 -1.526489 -0.198620 0.506690 0.167560 -0.221260 
-1.280870 16.670880 -2.918170 3.802037 0.912681 5.162740 -15.196284 10.426322 4.974090 24.136433 -6.255462 -35.659850 -25.170692 15.266727 30.910701 -0.053200 9.248505 1.094111 0.512570 0.353240 0.371040 18.818331 -8.002236 4.277089 -27.548916 2.993685 -45.005107 18.802697 -21.406883 47.472474 -1.489547 -9.391893 0.928958 0.218510 0.120190 0.266990 -4.357867 -2.171116 -9.311828 33.881894 -11.354413 32.685065 -5.341486 -0.577469 5.600627 1.529585 -10.129523 -13.221729 -27.283969 5.393008 40.084504 -8.185910 -0.941700 -23.335250 -14.277569 -26.585172 2.033176 -31.167062 -33.560104 1.867140 -115.506413 -57.967376 68.171184 -3.782747 3.064707 0.789540 -0.055080 0.269280 0.102230 11.346528 31.325920 10.897100 44.278039 11.396387 -13.566899 78.342583 49.590214 24.943738 2.063027 -1.581953 -0.164750 0.485230 0.140000 -0.191930 
